<?xml version="1.0" encoding="UTF-8" standalone="no"?><!DOCTYPE svg PUBLIC "-//W3C//DTD SVG 1.1//EN" "http://www.w3.org/Graphics/SVG/1.1/DTD/svg11.dtd"><!-- Generated by graphviz version 2.40.1 (20161225.0304) --><!-- Title: G Pages: 1 --><svg width="315pt" height="209pt" viewBox="0.00 0.00 315.43 209.05" xmlns="http://www.w3.org/2000/svg" xmlns:xlink="http://www.w3.org/1999/xlink"><g id="graph0" class="graph" transform="scale(1 1) rotate(0) translate(4 205.0471)"><title>G</title><polygon fill="#121212" stroke="transparent" points="-4,4 -4,-205.0471 311.4281,-205.0471 311.4281,4 -4,4"/><!-- a2 --><g id="node1" class="node"><title>a2</title><ellipse fill="#00ff00" stroke="#000000" cx="68" cy="-150.0471" rx="36" ry="36"/><text text-anchor="middle" x="68" y="-146.3471" font-family="Times,serif" font-size="14.00" fill="#aaaaaa">a2</text><text text-anchor="middle" x="16" y="-189.8471" font-family="Times,serif" font-size="14.00" fill="#aaaaaa">0,89</text></g><!-- c1 --><g id="node2" class="node"><title>c1</title><ellipse fill="#fff100" stroke="#000000" cx="271.4281" cy="-133.1992" rx="36" ry="36"/><text text-anchor="middle" x="271.4281" y="-129.4992" font-family="Times,serif" font-size="14.00" fill="#aaaaaa">c1</text><text text-anchor="middle" x="219.4281" y="-172.9992" font-family="Times,serif" font-size="14.00" fill="#aaaaaa">0,64</text></g><!-- b1 --><g id="node3" class="node"><title>b1</title><ellipse fill="#ffe000" stroke="#000000" cx="235.9235" cy="-36" rx="36" ry="36"/><text text-anchor="middle" x="235.9235" y="-32.3" font-family="Times,serif" font-size="14.00" fill="#aaaaaa">b1</text><text text-anchor="middle" x="183.9235" y="-3.8" font-family="Times,serif" font-size="14.00" fill="#aaaaaa">0,62</text></g><!-- c1&#45;&#45;b1 --><g id="edge1" class="edge"><title>c1&#45;&#45;b1</title><path fill="none" stroke="#272727" stroke-width="7" d="M259.0103,-99.2036C255.5708,-89.7875 251.8368,-79.565 248.3943,-70.1406"/><text text-anchor="middle" x="237.7034" y="-88.4752" font-family="Times,serif" font-size="14.00" fill="#272727">0,75</text></g><!-- a1 --><g id="node4" class="node"><title>a1</title><ellipse fill="#1aff00" stroke="#000000" cx="168.0508" cy="-116.008" rx="36" ry="36"/><text text-anchor="middle" x="168.0508" y="-112.308" font-family="Times,serif" font-size="14.00" fill="#aaaaaa">a1</text><text text-anchor="middle" x="116.0508" y="-83.808" font-family="Times,serif" font-size="14.00" fill="#aaaaaa">0,86</text></g><!-- a1&#45;&#45;a2 --><g id="edge4" class="edge"><title>a1&#45;&#45;a2</title><path fill="none" stroke="#272727" stroke-width="10" d="M133.8988,-127.6271C123.7092,-131.0938 112.5393,-134.894 102.3378,-138.3648"/><text text-anchor="middle" x="118.1227" y="-121.7944" font-family="Times,serif" font-size="14.00" fill="#272727">1,00</text></g><!-- a1&#45;&#45;c1 --><g id="edge2" class="edge"><title>a1&#45;&#45;c1</title><path fill="none" stroke="#272727" stroke-width="2" d="M203.6274,-121.9242C214.0235,-123.653 225.3858,-125.5425 235.7859,-127.272"/><text text-anchor="middle" x="219.7051" y="-113.3979" font-family="Times,serif" font-size="14.00" fill="#272727">0,25</text></g><!-- a1&#45;&#45;b1 --><g id="edge3" class="edge"><title>a1&#45;&#45;b1</title><path fill="none" stroke="#272727" stroke-width="2" d="M191.4088,-88.4738C198.2343,-80.4278 205.6943,-71.6341 212.5225,-63.585"/><text text-anchor="middle" x="185.9647" y="-64.8306" font-family="Times,serif" font-size="14.00" fill="#272727">0,25</text></g></g></svg>