<?xml version="1.0" encoding="UTF-8" standalone="no"?><!DOCTYPE svg PUBLIC "-//W3C//DTD SVG 1.1//EN" "http://www.w3.org/Graphics/SVG/1.1/DTD/svg11.dtd"><!-- Generated by graphviz version 2.40.1 (20161225.0304) --><!-- Title: G Pages: 1 --><svg width="705pt" height="472pt" viewBox="0.00 0.00 704.92 471.59" xmlns="http://www.w3.org/2000/svg" xmlns:xlink="http://www.w3.org/1999/xlink"><g id="graph0" class="graph" transform="scale(1 1) rotate(0) translate(4 467.588)"><title>G</title><polygon fill="#121212" stroke="transparent" points="-4,4 -4,-467.588 700.92,-467.588 700.92,4 -4,4"/><!-- a1 --><g id="node1" class="node"><title>a1</title><ellipse fill="#1aff00" stroke="#000000" cx="423.2254" cy="-187.987" rx="36" ry="36"/><text text-anchor="middle" x="423.2254" y="-184.287" font-family="Times,serif" font-size="14.00" fill="#aaaaaa">a1</text><text text-anchor="middle" x="371.2254" y="-227.787" font-family="Times,serif" font-size="14.00" fill="#aaaaaa">0,86</text></g><!-- a2 --><g id="node3" class="node"><title>a2</title><ellipse fill="#00ff00" stroke="#000000" cx="255.3544" cy="-151.2895" rx="36" ry="36"/><text text-anchor="middle" x="255.3544" y="-147.5895" font-family="Times,serif" font-size="14.00" fill="#aaaaaa">a2</text><text text-anchor="middle" x="203.3544" y="-119.0895" font-family="Times,serif" font-size="14.00" fill="#aaaaaa">0,89</text></g><!-- a1&#45;&#45;a2 --><g id="edge10" class="edge"><title>a1&#45;&#45;a2</title><path fill="none" stroke="#272727" stroke-width="10" d="M388.0341,-180.294C359.4797,-174.0519 319.4073,-165.2918 290.788,-159.0355"/><text text-anchor="middle" x="323.4354" y="-173.4701" font-family="Times,serif" font-size="14.00" fill="#272727">1,00</text></g><!-- c1 --><g id="node6" class="node"><title>c1</title><ellipse fill="#fff100" stroke="#000000" cx="557.1354" cy="-284.1256" rx="36" ry="36"/><text text-anchor="middle" x="557.1354" y="-280.4256" font-family="Times,serif" font-size="14.00" fill="#aaaaaa">c1</text><text text-anchor="middle" x="505.1354" y="-323.9256" font-family="Times,serif" font-size="14.00" fill="#aaaaaa">0,64</text></g><!-- a1&#45;&#45;c1 --><g id="edge5" class="edge"><title>a1&#45;&#45;c1</title><path fill="none" stroke="#272727" stroke-width="2" d="M452.6125,-209.085C474.9394,-225.1143 505.5068,-247.0596 527.8168,-263.0768"/><text text-anchor="middle" x="474.221" y="-239.8855" font-family="Times,serif" font-size="14.00" fill="#272727">0,25</text></g><!-- b1 --><g id="node8" class="node"><title>b1</title><ellipse fill="#ffe000" stroke="#000000" cx="576.1339" cy="-125.4368" rx="36" ry="36"/><text text-anchor="middle" x="576.1339" y="-121.7368" font-family="Times,serif" font-size="14.00" fill="#aaaaaa">b1</text><text text-anchor="middle" x="524.1339" y="-165.2368" font-family="Times,serif" font-size="14.00" fill="#aaaaaa">0,62</text></g><!-- a1&#45;&#45;b1 --><g id="edge2" class="edge"><title>a1&#45;&#45;b1</title><path fill="none" stroke="#272727" stroke-width="2" d="M456.7818,-174.2601C482.2764,-163.831 517.1805,-149.5528 542.6558,-139.1317"/><text text-anchor="middle" x="483.726" y="-160.4929" font-family="Times,serif" font-size="14.00" fill="#272727">0,25</text></g><!-- b2 --><g id="node2" class="node"><title>b2</title><ellipse fill="#d8ff00" stroke="#000000" cx="148.008" cy="-226.5387" rx="36" ry="36"/><text text-anchor="middle" x="148.008" y="-222.8387" font-family="Times,serif" font-size="14.00" fill="#aaaaaa">b2</text><text text-anchor="middle" x="96.008" y="-266.3387" font-family="Times,serif" font-size="14.00" fill="#aaaaaa">0,69</text></g><!-- b2&#45;&#45;a2 --><g id="edge15" class="edge"><title>b2&#45;&#45;a2</title><path fill="none" stroke="#272727" stroke-width="2" d="M177.625,-205.7774C192.6432,-195.2497 210.8295,-182.5012 225.834,-171.9831"/><text text-anchor="middle" x="185.7346" y="-177.6767" font-family="Times,serif" font-size="14.00" fill="#272727">0,25</text></g><!-- e2 --><g id="node4" class="node"><title>e2</title><ellipse fill="#f6ff00" stroke="#000000" cx="68" cy="-165.0868" rx="36" ry="36"/><text text-anchor="middle" x="68" y="-161.3868" font-family="Times,serif" font-size="14.00" fill="#aaaaaa">e2</text><text text-anchor="middle" x="16" y="-204.8868" font-family="Times,serif" font-size="14.00" fill="#aaaaaa">0,66</text></g><!-- b2&#45;&#45;e2 --><g id="edge13" class="edge"><title>b2&#45;&#45;e2</title><path fill="none" stroke="#272727" stroke-width="2" d="M119.1233,-204.3532C111.7826,-198.715 103.8992,-192.66 96.5741,-187.0338"/><text text-anchor="middle" x="123.8429" y="-184.489" font-family="Times,serif" font-size="14.00" fill="#272727">0,25</text></g><!-- d2 --><g id="node7" class="node"><title>d2</title><ellipse fill="#f6ff00" stroke="#000000" cx="190.6321" cy="-36" rx="36" ry="36"/><text text-anchor="middle" x="190.6321" y="-32.3" font-family="Times,serif" font-size="14.00" fill="#aaaaaa">d2</text><text text-anchor="middle" x="138.6321" y="-3.8" font-family="Times,serif" font-size="14.00" fill="#aaaaaa">0,66</text></g><!-- b2&#45;&#45;d2 --><g id="edge1" class="edge"><title>b2&#45;&#45;d2</title><path fill="none" stroke="#272727" stroke-width="7" d="M155.9254,-191.1464C163.5813,-156.9227 175.1155,-105.3623 182.7571,-71.2028"/><text text-anchor="middle" x="153.3466" y="-134.9505" font-family="Times,serif" font-size="14.00" fill="#272727">0,75</text></g><!-- c2 --><g id="node9" class="node"><title>c2</title><ellipse fill="#d8ff00" stroke="#000000" cx="92.6724" cy="-60.2458" rx="36" ry="36"/><text text-anchor="middle" x="92.6724" y="-56.5458" font-family="Times,serif" font-size="14.00" fill="#aaaaaa">c2</text><text text-anchor="middle" x="40.6724" y="-100.0458" font-family="Times,serif" font-size="14.00" fill="#aaaaaa">0,69</text></g><!-- b2&#45;&#45;c2 --><g id="edge7" class="edge"><title>b2&#45;&#45;c2</title><path fill="none" stroke="#272727" stroke-width="5" d="M136.5424,-192.0827C127.0455,-163.5428 113.6162,-123.1855 104.1233,-94.6577"/><text text-anchor="middle" x="120.3313" y="-132.1656" font-family="Times,serif" font-size="14.00" fill="#272727">0,50</text></g><!-- a2&#45;&#45;e2 --><g id="edge6" class="edge"><title>a2&#45;&#45;e2</title><path fill="none" stroke="#272727" stroke-width="2" d="M219.2306,-153.9498C186.0544,-156.393 137.154,-159.9941 104.0129,-162.4347"/><text text-anchor="middle" x="145.6086" y="-161.9932" font-family="Times,serif" font-size="14.00" fill="#272727">0,25</text></g><!-- a2&#45;&#45;d2 --><g id="edge12" class="edge"><title>a2&#45;&#45;d2</title><path fill="none" stroke="#272727" stroke-width="2" d="M237.6687,-119.7861C228.5363,-103.5186 217.4257,-83.7273 208.2964,-67.4653"/><text text-anchor="middle" x="206.9814" y="-97.4236" font-family="Times,serif" font-size="14.00" fill="#272727">0,25</text></g><!-- a2&#45;&#45;c2 --><g id="edge8" class="edge"><title>a2&#45;&#45;c2</title><path fill="none" stroke="#272727" stroke-width="2" d="M223.6014,-133.5192C194.9365,-117.4771 152.9854,-93.9995 124.3452,-77.9713"/><text text-anchor="middle" x="157.964" y="-109.5401" font-family="Times,serif" font-size="14.00" fill="#272727">0,25</text></g><!-- e2&#45;&#45;d2 --><g id="edge3" class="edge"><title>e2&#45;&#45;d2</title><path fill="none" stroke="#272727" stroke-width="2" d="M92.8164,-138.9642C113.9526,-116.7155 144.1863,-84.8905 165.4317,-62.5269"/><text text-anchor="middle" x="113.0831" y="-104.5886" font-family="Times,serif" font-size="14.00" fill="#272727">0,25</text></g><!-- e2&#45;&#45;c2 --><g id="edge11" class="edge"><title>e2&#45;&#45;c2</title><path fill="none" stroke="#272727" stroke-width="7" d="M76.2842,-129.8846C78.888,-118.82 81.7628,-106.6041 84.3681,-95.5336"/><text text-anchor="middle" x="64.3256" y="-116.5113" font-family="Times,serif" font-size="14.00" fill="#272727">0,75</text></g><!-- d1 --><g id="node5" class="node"><title>d1</title><ellipse fill="#ff0000" stroke="#000000" cx="660.92" cy="-412.588" rx="36" ry="36"/><text text-anchor="middle" x="660.92" y="-408.888" font-family="Times,serif" font-size="14.00" fill="#aaaaaa">d1</text><text text-anchor="middle" x="608.92" y="-452.388" font-family="Times,serif" font-size="14.00" fill="#aaaaaa">0,41</text></g><!-- d1&#45;&#45;c1 --><g id="edge4" class="edge"><title>d1&#45;&#45;c1</title><path fill="none" stroke="#272727" stroke-width="2" d="M638.144,-384.3964C620.8399,-362.9777 597.1493,-333.6539 579.8582,-312.2514"/><text text-anchor="middle" x="592.9962" y="-352.1178" font-family="Times,serif" font-size="14.00" fill="#272727">0,25</text></g><!-- c1&#45;&#45;b1 --><g id="edge14" class="edge"><title>c1&#45;&#45;b1</title><path fill="none" stroke="#272727" stroke-width="7" d="M561.4464,-248.1166C564.5557,-222.1462 568.7346,-187.2408 571.8399,-161.3032"/><text text-anchor="middle" x="550.6447" y="-208.4976" font-family="Times,serif" font-size="14.00" fill="#272727">0,75</text></g><!-- d2&#45;&#45;c2 --><g id="edge9" class="edge"><title>d2&#45;&#45;c2</title><path fill="none" stroke="#272727" stroke-width="2" d="M155.5431,-44.6848C146.5396,-46.9133 136.8534,-49.3107 127.8457,-51.5402"/><text text-anchor="middle" x="141.696" y="-36.9121" font-family="Times,serif" font-size="14.00" fill="#272727">0,25</text></g></g></svg>